<?xml version="1.0" encoding="UTF-8"?>
<svg id="_圖層_1" data-name="圖層_1" xmlns="http://www.w3.org/2000/svg" version="1.1" viewBox="0 0 121.28 35.24">
  <!-- Generator: Adobe Illustrator 30.1.0, SVG Export Plug-In . SVG Version: 2.1.1 Build 136)  -->
  <g id="Raggruppa_72894">
    <g id="Raggruppa_71804">
      <path id="Tracciato_56431" d="M25.3,23.1v-8.4h-8.3v8.4h8.3ZM27.59,0H10.92C4.57,0,0,3.57,0,11.01v13.19c0,7.46,4.57,11.04,10.92,11.04h14.37v-8.25s-13.57,0-13.57,0c-1.54,0-3.52-.37-3.52-3v-12.77c0-2.62,1.98-3,3.52-3h15.09c1.52,0,3.49.38,3.5,3v24.02h8.22V11.01c0-7.44-4.56-11.01-10.93-11.01M52.06,24.27V.01s-8.24,0-8.24,0v24.19c0,7.43,4.58,11.02,10.92,11.02h22.25v-8.24h-21.74c-1.4,0-3.19-.34-3.19-2.71M92.93,26.98c-1.39,0-3.19-.35-3.19-2.71v-2.52h24.85v-8.22h-24.85v-2.56c0-2.38,1.8-2.73,3.19-2.73h8.41V.01h-8.91c-6.35-.01-10.92,3.56-10.92,10.99v13.19c0,7.43,4.56,11.02,10.92,11.02h22.16v-8.24h-21.66ZM106.34,0v8.23h8.25V0h-8.25Z"/>
      <path id="Tracciato_56432" d="M118.27,2.44h.5c.31,0,.55-.05.55-.39,0-.3-.32-.35-.58-.35h-.47v.74ZM117.71,1.27h1.06c.7,0,1.1.22,1.1.83.03.39-.26.72-.65.75-.03,0-.06,0-.09,0l.75,1.23h-.58l-.68-1.2h-.35v1.2h-.56V1.27ZM118.71,4.65c1.05,0,1.9-.86,1.89-1.91,0-.02,0-.05,0-.07.04-1.04-.77-1.92-1.81-1.96-1.04-.04-1.92.77-1.96,1.81,0,.05,0,.1,0,.15-.04,1.05.77,1.93,1.82,1.98.02,0,.05,0,.07,0M118.71.17c1.37-.05,2.52,1.02,2.57,2.39,0,.04,0,.07,0,.11,0,1.42-1.16,2.57-2.58,2.57-1.42,0-2.57-1.15-2.57-2.57,0-1.37,1.1-2.49,2.47-2.5.04,0,.07,0,.11,0"/>
    </g>
  </g>
</svg>