<svg xmlns="http://www.w3.org/2000/svg" width="121.284" height="35.24" viewBox="0 0 121.284 35.24">
  <g id="Raggruppa_72894" data-name="Raggruppa 72894" transform="translate(0 0)">
    <g id="Raggruppa_71804" data-name="Raggruppa 71804" transform="translate(0 0)">
      <path id="Tracciato_56431" data-name="Tracciato 56431" d="M25.295,23.1l0-8.4-8.3,0v8.4ZM27.592,0,10.923,0C4.572,0,0,3.571,0,11.007L0,24.195c0,7.461,4.566,11.043,10.921,11.043l14.369,0,.006-8.252H11.716c-1.536,0-3.517-.374-3.519-3V11.213c0-2.621,1.98-3,3.517-3L26.8,8.22c1.525,0,3.492.371,3.5,2.992l0,24.025h8.223V11.007C38.516,3.571,33.958,0,27.592,0M52.057,24.269,52.052.013,43.815.007V24.193c0,7.431,4.577,11.017,10.922,11.024l22.249,0,0-8.238H55.242c-1.4,0-3.187-.339-3.185-2.706m40.875,2.706c-1.386,0-3.187-.346-3.191-2.71l0-2.524,24.845,0V13.523l-24.849,0,0-2.556c0-2.381,1.8-2.726,3.19-2.726h8.412l0-8.23L92.431,0c-6.352,0-10.916,3.568-10.918,11l0,13.188c0,7.432,4.561,11.022,10.919,11.022h22.159l0-8.242ZM106.343.009l0,8.228,8.248,0V.007Z" transform="translate(0 0)" fill="#eafc40"/>
      <path id="Tracciato_56432" data-name="Tracciato 56432" d="M175.543,2.522h.5c.314,0,.551-.048.551-.389,0-.3-.324-.348-.578-.348h-.469Zm-.557-1.173h1.057c.7,0,1.1.221,1.1.831a.7.7,0,0,1-.736.749l.75,1.228h-.582l-.684-1.2h-.348v1.2h-.557Zm1,3.383a1.9,1.9,0,0,0,1.89-1.977,1.891,1.891,0,1,0-3.779,0,1.9,1.9,0,0,0,1.889,1.977m0-4.476a2.484,2.484,0,0,1,2.572,2.5,2.573,2.573,0,0,1-5.146,0,2.485,2.485,0,0,1,2.574-2.5" transform="translate(-57.273 -0.084)" fill="#eafc40"/>
    </g>
  </g>
</svg>
